<?xml version="1.0" encoding="iso-8859-1"?>
<!-- Generator: Adobe Illustrator 19.0.0, SVG Export Plug-In . SVG Version: 6.00 Build 0)  -->
<svg version="1.1" id="Layer_1" xmlns="http://www.w3.org/2000/svg" xmlns:xlink="http://www.w3.org/1999/xlink" x="0px" y="0px"
	 viewBox="0 0 512 512" style="enable-background:new 0 0 512 512;" xml:space="preserve">
<g transform="translate(1 1)">
	<path style="fill:#2A93CB;" d="M229.4,262.68h-68.267c-5.12,0-8.533-3.413-8.533-8.533s3.413-8.533,8.533-8.533H229.4
		c5.12,0,8.533,3.413,8.533,8.533C237.933,258.413,234.52,262.68,229.4,262.68z M255,237.08c-5.12,0-8.533-3.413-8.533-8.533V134.68
		c0-5.12,3.413-8.533,8.533-8.533s8.533,3.413,8.533,8.533v93.867C263.533,232.813,260.12,237.08,255,237.08z"/>
	<path style="fill:#D0E8F9;" d="M229.4,254.147c0,14.507,11.093,25.6,25.6,25.6c14.507,0,25.6-11.093,25.6-25.6
		c0-14.507-11.093-25.6-25.6-25.6C240.493,228.547,229.4,239.64,229.4,254.147L229.4,254.147z"/>
	<g>
		<path style="fill:#0096E6;" d="M255,288.28c-18.773,0-34.133-15.36-34.133-34.133s15.36-34.133,34.133-34.133
			s34.133,15.36,34.133,34.133C289.133,272.92,273.773,288.28,255,288.28z M255,237.08c-9.387,0-17.067,7.68-17.067,17.067
			s7.68,17.067,17.067,17.067s17.067-7.68,17.067-17.067S264.387,237.08,255,237.08z"/>
		<path style="fill:#0096E6;" d="M255,450.413c-5.12,0-8.533-3.413-8.533-8.533v-8.533c0-5.12,3.413-8.533,8.533-8.533
			s8.533,3.413,8.533,8.533v8.533C263.533,446.147,260.12,450.413,255,450.413z M121.88,394.947c-2.56,0-4.267-0.853-5.973-2.56
			c-3.413-3.413-3.413-8.533,0-11.947l5.973-5.973c3.413-3.413,8.533-3.413,11.947,0c3.413,3.413,3.413,8.533,0,11.947l-5.973,5.973
			C127,394.093,124.44,394.947,121.88,394.947z M442.733,262.68H434.2c-5.12,0-8.533-3.413-8.533-8.533s3.413-8.533,8.533-8.533
			h8.533c5.12,0,8.533,3.413,8.533,8.533C451.267,258.413,447.853,262.68,442.733,262.68z M75.8,262.68h-8.533
			c-5.12,0-8.533-3.413-8.533-8.533s3.413-8.533,8.533-8.533H75.8c5.12,0,8.533,3.413,8.533,8.533
			C84.333,258.413,80.92,262.68,75.8,262.68z M381.293,135.533c-2.56,0-4.267-0.853-5.973-2.56c-3.413-3.413-3.413-8.533,0-11.947
			l5.973-5.973c3.413-3.413,8.533-3.413,11.947,0c3.413,3.413,3.413,8.533,0,11.947l-5.973,5.973
			C386.413,134.68,383.853,135.533,381.293,135.533z M128.707,135.533c-2.56,0-4.267-0.853-5.973-2.56L115.907,127
			c-3.413-3.413-3.413-8.533,0-11.947s8.533-3.413,11.947,0l5.973,5.973c3.413,3.413,3.413,8.533,0,11.947
			C132.973,134.68,130.413,135.533,128.707,135.533z M255,83.48c-5.12,0-8.533-3.413-8.533-8.533v-8.533
			c0-5.12,3.413-8.533,8.533-8.533s8.533,3.413,8.533,8.533v8.533C263.533,79.213,260.12,83.48,255,83.48z"/>
		<path style="fill:#0096E6;" d="M255,511C114.2,511-1,395.8-1,255S114.2-1,255-1s256,115.2,256,256
			c0,30.72-5.12,60.587-16.213,88.747c-1.707,4.267-6.827,6.827-11.093,5.12c-4.267-1.707-6.827-6.827-5.12-11.093
			C488.813,311.32,493.08,283.16,493.08,255C493.933,123.587,386.413,16.067,255,16.067S16.067,123.587,16.067,255
			S123.587,493.933,255,493.933c28.16,0,56.32-5.12,82.773-14.507c4.267-1.707,9.387,0.853,11.093,5.12
			c1.707,4.267-0.853,9.387-5.12,11.093C315.587,505.88,285.72,511,255,511z"/>
		<path style="fill:#0096E6;" d="M417.133,502.467c-5.12,0-8.533-3.413-8.533-8.533v-7.68
			c-19.627-4.267-34.133-21.333-34.133-41.813c0-5.12,3.413-8.533,8.533-8.533c5.12,0,8.533,3.413,8.533,8.533
			c0,11.093,6.827,20.48,17.067,23.893V421.4l-18.773-14.507c-6.827-5.12-11.093-12.8-11.947-21.333
			c-0.853-8.533,1.707-16.213,6.827-22.187c5.973-7.68,14.507-11.947,23.893-14.507v-8.533c0-5.12,3.413-8.533,8.533-8.533
			c5.12,0,8.533,3.413,8.533,8.533v9.387c19.627,4.267,34.133,21.333,34.133,41.813c0,5.12-3.413,8.533-8.533,8.533
			s-8.533-3.413-8.533-8.533c0-11.093-6.827-20.48-17.067-23.893v46.933l18.773,14.507c6.827,5.12,11.093,12.8,11.947,21.333
			c0.853,8.533-1.707,16.213-6.827,22.187c-5.973,7.68-14.507,11.947-23.893,14.507v6.827
			C425.667,499.053,422.253,502.467,417.133,502.467z M425.667,435.907v33.28c4.267-1.707,7.68-4.267,11.093-7.68
			c2.56-2.56,3.413-5.973,2.56-9.387c0-3.413-2.56-6.827-5.12-9.387L425.667,435.907z M408.6,367.64
			c-4.267,1.707-7.68,4.267-11.093,7.68c-2.56,2.56-3.413,5.973-2.56,9.387c0,3.413,2.56,6.827,5.12,9.387l8.533,6.827V367.64z"/>
	</g>
</g>
<g>
</g>
<g>
</g>
<g>
</g>
<g>
</g>
<g>
</g>
<g>
</g>
<g>
</g>
<g>
</g>
<g>
</g>
<g>
</g>
<g>
</g>
<g>
</g>
<g>
</g>
<g>
</g>
<g>
</g>
</svg>
